<svg width="32" height="32" viewBox="0 0 32 32" fill="none" xmlns="http://www.w3.org/2000/svg">
<rect width="32" height="32" fill="white"/>
<g clip-path="url(#clip0_2_5)">
<path d="M1.93555 1.14111H6.25292C7.78267 1.14111 9.0478 1.44111 10.0483 2.04111C11.056 2.63405 11.81 3.45641 12.3103 4.50817C12.8105 5.55994 13.0607 6.76347 13.0607 8.11876C13.0607 9.48111 12.8105 10.6882 12.3103 11.7399C11.81 12.7917 11.056 13.6176 10.0483 14.2176C9.0478 14.8176 7.78267 15.1176 6.25292 15.1176H1.93555V1.14111ZM5.1763 3.947V12.3117H5.9593C6.77855 12.3117 7.45642 12.1317 7.99292 11.7717C8.52942 11.4046 8.9318 10.907 9.20005 10.2788C9.47555 9.64347 9.6133 8.93053 9.6133 8.13994C9.6133 7.34229 9.47917 6.62935 9.21092 6.00111C8.94992 5.36582 8.54755 4.86464 8.0038 4.49758C7.46005 4.13053 6.77855 3.947 5.9593 3.947H5.1763ZM15.0853 1.14111H18.3369V15.1176H15.0853V1.14111Z" fill="black"/>
<path d="M4.91472 19.9246L5.15397 19.967V30.9999H1.90234V17.0234H6.33934L12.1575 28.0352L11.9182 28.0776V17.0234H15.1698V30.9999H10.7111L4.91472 19.9246ZM17.6201 17.0234H26.7878V19.7976H20.8609V22.6458H26.7334V25.3352H20.8609V28.2258H26.7878V30.9999H17.6201V17.0234Z" fill="black"/>
</g>
<defs>
<clipPath id="clip0_2_5">
<rect width="29" height="30" fill="white" transform="translate(1 1)"/>
</clipPath>
</defs>
</svg>
