<svg width="47" height="65" viewBox="0 0 47 65" fill="none" xmlns="http://www.w3.org/2000/svg">
<path d="M9.752 34.576C7.88 34.576 6.232 34.128 4.808 33.232C3.4 32.32 2.296 31.08 1.496 29.512C0.712 27.928 0.32 26.144 0.32 24.16C0.32 22.176 0.712 20.4 1.496 18.832C2.296 17.248 3.4 16 4.808 15.088C6.232 14.176 7.88 13.72 9.752 13.72C11.08 13.72 12.256 13.936 13.28 14.368C14.32 14.8 15.152 15.312 15.776 15.904C16.4 16.496 16.768 17.024 16.88 17.488V0.975999H23V34H16.952V30.568C16.696 31.128 16.224 31.72 15.536 32.344C14.848 32.968 14.008 33.496 13.016 33.928C12.024 34.36 10.936 34.576 9.752 34.576ZM11.48 29.728C12.504 29.728 13.424 29.496 14.24 29.032C15.056 28.552 15.696 27.896 16.16 27.064C16.64 26.216 16.88 25.248 16.88 24.16C16.88 23.072 16.64 22.112 16.16 21.28C15.696 20.432 15.056 19.768 14.24 19.288C13.424 18.808 12.504 18.568 11.48 18.568C10.536 18.568 9.672 18.808 8.888 19.288C8.104 19.752 7.472 20.408 6.992 21.256C6.528 22.088 6.296 23.056 6.296 24.16C6.296 25.264 6.528 26.24 6.992 27.088C7.472 27.92 8.104 28.568 8.888 29.032C9.672 29.496 10.536 29.728 11.48 29.728ZM27.7003 34V14.296H33.7723V34H27.7003ZM30.8203 9.208C29.8123 9.208 28.9563 8.856 28.2523 8.152C27.5643 7.448 27.2203 6.608 27.2203 5.632C27.2203 4.656 27.5723 3.808 28.2763 3.088C28.9803 2.368 29.8283 2.008 30.8203 2.008C31.4763 2.008 32.0763 2.176 32.6203 2.512C33.1643 2.832 33.6043 3.264 33.9403 3.808C34.2763 4.352 34.4443 4.96 34.4443 5.632C34.4443 6.608 34.0843 7.448 33.3643 8.152C32.6603 8.856 31.8123 9.208 30.8203 9.208ZM13.784 43.72C15.128 43.72 16.44 44 17.72 44.56C19 45.104 20.048 45.976 20.864 47.176C21.696 48.376 22.112 49.944 22.112 51.88V64H15.992V52.936C15.992 51.32 15.608 50.12 14.84 49.336C14.088 48.552 13.096 48.16 11.864 48.16C11.064 48.16 10.296 48.384 9.56 48.832C8.84 49.264 8.248 49.872 7.784 50.656C7.336 51.424 7.112 52.304 7.112 53.296V64H1.016V44.296H7.112V47.44C7.288 46.896 7.688 46.336 8.312 45.76C8.936 45.184 9.728 44.704 10.688 44.32C11.648 43.92 12.68 43.72 13.784 43.72ZM31.3846 55.504C31.4326 56.4 31.6726 57.2 32.1046 57.904C32.5366 58.608 33.1606 59.16 33.9766 59.56C34.8086 59.96 35.8006 60.16 36.9526 60.16C37.9926 60.16 38.9046 60.032 39.6886 59.776C40.4886 59.52 41.1606 59.208 41.7046 58.84C42.2646 58.456 42.6806 58.088 42.9526 57.736L45.4726 61.48C45.0246 62.04 44.4246 62.56 43.6726 63.04C42.9366 63.504 41.9926 63.872 40.8406 64.144C39.7046 64.432 38.2806 64.576 36.5686 64.576C34.4086 64.576 32.5126 64.152 30.8806 63.304C29.2486 62.456 27.9766 61.232 27.0646 59.632C26.1526 58.032 25.6966 56.128 25.6966 53.92C25.6966 52 26.1046 50.272 26.9206 48.736C27.7366 47.184 28.9206 45.96 30.4726 45.064C32.0406 44.168 33.9206 43.72 36.1126 43.72C38.1766 43.72 39.9606 44.12 41.4646 44.92C42.9846 45.704 44.1606 46.856 44.9926 48.376C45.8246 49.896 46.2406 51.752 46.2406 53.944C46.2406 54.072 46.2326 54.336 46.2166 54.736C46.2166 55.12 46.2006 55.376 46.1686 55.504H31.3846ZM40.5286 51.736C40.5126 51.224 40.3526 50.672 40.0486 50.08C39.7606 49.488 39.3046 48.984 38.6806 48.568C38.0566 48.152 37.2246 47.944 36.1846 47.944C35.1446 47.944 34.2886 48.144 33.6166 48.544C32.9606 48.944 32.4646 49.44 32.1286 50.032C31.7926 50.608 31.6006 51.176 31.5526 51.736H40.5286Z" fill="white"/>
</svg>
